# This file uses centimeters as units for non-parametric coordinates.

mtllib JAIL DOORS.mtl
g default
v 18.143885 -0.311800 -10.608949
v 22.836087 -0.311800 -10.608949
v 18.143885 11.885006 -10.608949
v 22.836087 11.885006 -10.608949
v 18.143882 11.885006 -11.663060
v 22.836084 11.885006 -11.663060
v 18.143882 -0.311800 -11.663060
v 22.836084 -0.311800 -11.663060
vt 0.387206 0.501839
vt 0.420220 0.501839
vt 0.420220 0.956821
vt 0.387206 0.956821
vt 0.348540 0.501839
vt 0.381554 0.501839
vt 0.381554 0.956821
vt 0.348540 0.956821
vt 0.463504 0.498161
vt 0.463504 0.001992
vt 0.496518 0.001992
vt 0.496518 0.498161
vt 0.425872 0.998008
vt 0.425872 0.501839
vt 0.458886 0.501839
vt 0.458886 0.998008
vt 0.001835 0.498161
vt 0.001835 0.001992
vt 0.456818 0.001992
vt 0.456818 0.498161
vt 0.464539 0.998008
vt 0.464539 0.501839
vt 0.919521 0.501839
vt 0.919521 0.998008
vn 0.000000 0.000000 1.000000
vn 0.000000 0.000000 1.000000
vn 0.000000 0.000000 1.000000
vn 0.000000 0.000000 1.000000
vn 0.000000 1.000000 0.000000
vn 0.000000 1.000000 0.000000
vn 0.000000 1.000000 0.000000
vn 0.000000 1.000000 0.000000
vn 0.000000 0.000000 -1.000000
vn 0.000000 0.000000 -1.000000
vn 0.000000 0.000000 -1.000000
vn 0.000000 0.000000 -1.000000
vn 0.000000 -1.000000 0.000000
vn 0.000000 -1.000000 0.000000
vn 0.000000 -1.000000 0.000000
vn 0.000000 -1.000000 0.000000
vn 1.000000 0.000000 0.000000
vn 1.000000 0.000000 0.000000
vn 1.000000 0.000000 0.000000
vn 1.000000 0.000000 0.000000
vn -1.000000 0.000000 0.000000
vn -1.000000 0.000000 0.000000
vn -1.000000 0.000000 0.000000
vn -1.000000 0.000000 0.000000
s off
g jail_walls5:pCube4 group6
usemtl initialShadingGroup
f 1/17/1 2/18/2 4/19/3 3/20/4
f 3/9/5 4/10/6 6/11/7 5/12/8
f 5/21/9 6/22/10 8/23/11 7/24/12
f 7/13/13 8/14/14 2/15/15 1/16/16
f 2/1/17 8/2/18 6/3/19 4/4/20
f 7/5/21 1/6/22 3/7/23 5/8/24
g default
v 13.271860 -0.311800 -10.608949
v 18.014226 -0.311800 -10.608949
v 13.271860 11.885006 -10.608949
v 18.014226 11.885006 -10.608949
v 13.271860 11.885006 -11.663060
v 18.014226 11.885006 -11.663060
v 13.271860 -0.311800 -11.663060
v 18.014226 -0.311800 -11.663060
vt 0.387206 0.501839
vt 0.420219 0.501839
vt 0.420219 0.956821
vt 0.387206 0.956821
vt 0.348540 0.501839
vt 0.381553 0.501839
vt 0.381553 0.956821
vt 0.348540 0.956821
vt 0.463504 0.498161
vt 0.463504 0.001992
vt 0.496518 0.001992
vt 0.496518 0.498161
vt 0.425872 0.998008
vt 0.425872 0.501839
vt 0.458886 0.501839
vt 0.458886 0.998008
vt 0.001835 0.498161
vt 0.001835 0.001992
vt 0.456818 0.001992
vt 0.456818 0.498161
vt 0.464538 0.998008
vt 0.464538 0.501839
vt 0.919521 0.501839
vt 0.919521 0.998008
vn 0.000000 0.000000 1.000000
vn 0.000000 0.000000 1.000000
vn 0.000000 0.000000 1.000000
vn 0.000000 0.000000 1.000000
vn 0.000000 1.000000 0.000000
vn 0.000000 1.000000 0.000000
vn 0.000000 1.000000 0.000000
vn 0.000000 1.000000 0.000000
vn 0.000000 0.000000 -1.000000
vn 0.000000 0.000000 -1.000000
vn 0.000000 0.000000 -1.000000
vn 0.000000 0.000000 -1.000000
vn 0.000000 -1.000000 0.000000
vn 0.000000 -1.000000 0.000000
vn 0.000000 -1.000000 0.000000
vn 0.000000 -1.000000 0.000000
vn 1.000000 0.000000 0.000000
vn 1.000000 0.000000 0.000000
vn 1.000000 0.000000 0.000000
vn 1.000000 0.000000 0.000000
vn -1.000000 0.000000 0.000000
vn -1.000000 0.000000 0.000000
vn -1.000000 0.000000 0.000000
vn -1.000000 0.000000 0.000000
s off
g jail_walls4:pCube4
usemtl initialShadingGroup
f 9/41/25 10/42/26 12/43/27 11/44/28
f 11/33/29 12/34/30 14/35/31 13/36/32
f 13/45/33 14/46/34 16/47/35 15/48/36
f 15/37/37 16/38/38 10/39/39 9/40/40
f 10/25/41 16/26/42 14/27/43 12/28/44
f 15/29/45 9/30/46 11/31/47 13/32/48
