# This file uses centimeters as units for non-parametric coordinates.

mtllib Billy board.mtl
g default
v -33.803669 0.553113 11.258730
v -30.724488 0.553113 10.530977
v -33.803669 0.286818 11.258730
v -30.724488 0.286818 10.530977
v -34.721360 0.286818 7.375904
v -31.642180 0.286818 6.648151
v -34.721360 0.553113 7.375904
v -31.642180 0.553113 6.648151
v -35.424154 0.833848 15.176571
v -15.631342 0.833848 15.176571
v -15.631342 0.291463 15.176571
v -35.424154 0.291463 15.176571
v -36.782100 -0.200493 15.894676
v -14.273397 -0.200493 15.894676
v -14.273397 0.833848 15.894676
v -36.782100 0.833848 15.894676
v -15.631342 0.833848 5.762978
v -15.631342 0.291463 5.762978
v -14.273397 -0.200493 4.760540
v -14.273397 0.833848 4.760540
v -36.782100 0.833848 4.760540
v -35.424154 0.833848 5.762978
v -35.424154 0.291463 5.762978
v -36.782100 -0.200493 4.760540
v -30.608712 0.553113 14.673105
v -27.445801 0.553113 14.756619
v -30.608712 0.286818 14.673105
v -27.445801 0.286818 14.756619
v -30.503402 0.286818 10.684697
v -27.340491 0.286818 10.768211
v -30.503402 0.553113 10.684697
v -27.340491 0.553113 10.768211
v -27.241041 0.553113 10.306949
v -24.100795 0.553113 10.694036
v -27.241041 0.286818 10.306949
v -24.100795 0.286818 10.694036
v -26.752926 0.286818 6.347121
v -23.612680 0.286818 6.734209
v -26.752926 0.553113 6.347121
v -23.612680 0.553113 6.734209
v -22.846292 0.553113 14.753512
v -19.767111 0.553113 14.025760
v -22.846292 0.286818 14.753512
v -19.767111 0.286818 14.025760
v -23.763983 0.286818 10.870687
v -20.684802 0.286818 10.142934
v -23.763983 0.553113 10.870687
v -20.684802 0.553113 10.142934
v -20.080909 0.553113 10.808440
v -16.917998 0.553113 10.891954
v -20.080909 0.286818 10.808440
v -16.917998 0.286818 10.891954
v -19.975599 0.286818 6.820032
v -16.812688 0.286818 6.903546
v -19.975599 0.553113 6.820032
v -16.812688 0.553113 6.903546
vt 0.182615 0.807078
vt 0.175644 0.807078
vt 0.175644 0.705434
vt 0.182615 0.705434
vt 0.196257 0.807078
vt 0.189286 0.807078
vt 0.189286 0.705434
vt 0.196257 0.705434
vt 0.964796 0.523750
vt 0.964796 0.770180
vt 0.950597 0.770180
vt 0.950597 0.523750
vt 0.963020 0.293091
vt 0.963020 0.001621
vt 0.990097 0.001621
vt 0.990097 0.293091
vt 0.944462 0.523750
vt 0.944462 0.770180
vt 0.930263 0.770180
vt 0.930263 0.523750
vt 0.970931 0.588553
vt 0.970931 0.297083
vt 0.998008 0.297083
vt 0.998008 0.588553
vt 0.100759 0.809842
vt 0.093788 0.809842
vt 0.093788 0.705434
vt 0.100759 0.705434
vt 0.114401 0.809843
vt 0.107430 0.809843
vt 0.107430 0.705434
vt 0.114401 0.705434
vt 0.155329 0.809094
vt 0.148358 0.809094
vt 0.148358 0.705434
vt 0.155329 0.705434
vt 0.168972 0.809094
vt 0.162001 0.809094
vt 0.162001 0.705434
vt 0.168972 0.705434
vt 0.209900 0.807078
vt 0.202929 0.807078
vt 0.202929 0.705434
vt 0.209900 0.705434
vt 0.223543 0.807078
vt 0.216572 0.807078
vt 0.216572 0.705434
vt 0.223543 0.705434
vt 0.128044 0.809842
vt 0.121073 0.809842
vt 0.121073 0.705434
vt 0.128044 0.705434
vt 0.141687 0.809843
vt 0.134716 0.809843
vt 0.134716 0.705434
vt 0.141687 0.705434
vt 0.843521 0.644446
vt 0.819497 0.542801
vt 0.900104 0.523750
vt 0.924128 0.625395
vt 0.708732 0.625395
vt 0.732755 0.523750
vt 0.813362 0.542801
vt 0.789339 0.644446
vt 0.035319 0.001621
vt 0.326789 0.001621
vt 0.326789 0.590856
vt 0.300548 0.555307
vt 0.300548 0.037169
vt 0.054118 0.037169
vt 0.035319 0.590856
vt 0.054118 0.555307
vt 0.934648 0.519759
vt 0.688218 0.519759
vt 0.688218 0.001621
vt 0.934648 0.001621
vt 0.333509 0.590856
vt 0.333509 0.001621
vt 0.624979 0.001621
vt 0.624979 0.590856
vt 0.193272 0.699256
vt 0.196028 0.594847
vt 0.278827 0.597033
vt 0.276071 0.701442
vt 0.104337 0.701442
vt 0.101581 0.597033
vt 0.184379 0.594847
vt 0.187136 0.699256
vt 0.386081 0.698508
vt 0.398859 0.594847
vt 0.481065 0.604980
vt 0.468287 0.708641
vt 0.297741 0.708641
vt 0.284963 0.604980
vt 0.367168 0.594847
vt 0.379946 0.698508
vt 0.621989 0.715543
vt 0.597966 0.613898
vt 0.678573 0.594847
vt 0.702596 0.696492
vt 0.487200 0.696492
vt 0.511224 0.594847
vt 0.591831 0.613898
vt 0.567807 0.715543
vt 0.009889 0.699256
vt 0.012646 0.594847
vt 0.095445 0.597033
vt 0.092688 0.701442
vt 0.004749 0.812029
vt 0.001992 0.707620
vt 0.084791 0.705434
vt 0.087548 0.809842
vt 0.319041 0.793239
vt 0.312070 0.793239
vt 0.312070 0.712632
vt 0.319041 0.712632
vt 0.332684 0.793239
vt 0.325713 0.793239
vt 0.325713 0.712632
vt 0.332684 0.712632
vt 0.666780 0.519759
vt 0.666780 0.001621
vt 0.680978 0.001621
vt 0.680978 0.519759
vt 0.001992 0.590855
vt 0.001992 0.001621
vt 0.029069 0.001621
vt 0.029069 0.590855
vt 0.955781 0.001621
vt 0.955781 0.519759
vt 0.941582 0.519759
vt 0.941582 0.001621
vt 0.631699 0.590855
vt 0.631699 0.001621
vt 0.658776 0.001621
vt 0.658776 0.590855
vt 0.237185 0.788233
vt 0.230214 0.788233
vt 0.230214 0.705434
vt 0.237185 0.705434
vt 0.250828 0.788233
vt 0.243857 0.788233
vt 0.243857 0.705434
vt 0.250828 0.705434
vt 0.291756 0.794838
vt 0.284785 0.794838
vt 0.284785 0.712632
vt 0.291756 0.712632
vt 0.305399 0.794838
vt 0.298428 0.794838
vt 0.298428 0.712632
vt 0.305399 0.712632
vt 0.346327 0.793239
vt 0.339356 0.793239
vt 0.339356 0.712632
vt 0.346327 0.712632
vt 0.359969 0.793239
vt 0.352998 0.793239
vt 0.352998 0.712632
vt 0.359969 0.712632
vt 0.264471 0.788233
vt 0.257500 0.788233
vt 0.257500 0.705434
vt 0.264471 0.705434
vt 0.278113 0.788233
vt 0.271142 0.788233
vt 0.271142 0.705434
vt 0.278113 0.705434
vn 0.230009 0.000000 0.973188
vn 0.230009 0.000000 0.973188
vn 0.230009 0.000000 0.973188
vn 0.230009 0.000000 0.973188
vn 0.000000 -1.000000 0.000000
vn 0.000000 -1.000000 0.000000
vn 0.000000 -1.000000 0.000000
vn 0.000000 -1.000000 0.000000
vn -0.230009 0.000000 -0.973188
vn -0.230009 0.000000 -0.973188
vn -0.230009 0.000000 -0.973188
vn -0.230009 0.000000 -0.973188
vn 0.000000 1.000000 0.000000
vn 0.000000 1.000000 0.000000
vn 0.000000 1.000000 0.000000
vn 0.000000 1.000000 0.000000
vn 0.973188 0.000000 -0.230009
vn 0.973188 0.000000 -0.230009
vn 0.973188 0.000000 -0.230009
vn 0.973188 0.000000 -0.230009
vn -0.973188 0.000000 0.230009
vn -0.973188 0.000000 0.230009
vn -0.973188 0.000000 0.230009
vn -0.973188 0.000000 0.230009
vn 0.000000 0.000000 -1.000000
vn 0.000000 0.000000 -1.000000
vn 0.000000 0.000000 -1.000000
vn 0.000000 0.000000 -1.000000
vn 0.000000 0.000000 1.000000
vn 0.000000 0.000000 1.000000
vn 0.000000 0.000000 1.000000
vn 0.000000 0.000000 1.000000
vn -1.000000 0.000000 0.000000
vn -1.000000 0.000000 0.000000
vn -1.000000 0.000000 0.000000
vn -1.000000 0.000000 0.000000
vn 1.000000 0.000000 0.000000
vn 1.000000 0.000000 0.000000
vn 1.000000 0.000000 0.000000
vn 1.000000 0.000000 0.000000
vn 0.000000 1.000000 -0.000000
vn 0.000000 1.000000 -0.000000
vn 0.000000 1.000000 0.000000
vn 0.000000 1.000000 -0.000000
vn 0.000000 1.000000 -0.000000
vn 0.000000 1.000000 0.000000
vn 0.000000 1.000000 0.000000
vn 0.000000 1.000000 0.000000
vn 0.000000 1.000000 0.000000
vn 0.000000 1.000000 0.000000
vn 0.000000 -1.000000 0.000000
vn 0.000000 -1.000000 0.000000
vn 0.000000 -1.000000 0.000000
vn 0.000000 -1.000000 0.000000
vn 0.000000 1.000000 0.000000
vn 0.000000 1.000000 0.000000
vn 0.000000 0.000000 1.000000
vn 0.000000 0.000000 1.000000
vn 0.000000 0.000000 1.000000
vn 0.000000 0.000000 1.000000
vn 0.000000 0.000000 -1.000000
vn 0.000000 0.000000 -1.000000
vn 0.000000 0.000000 -1.000000
vn 0.000000 0.000000 -1.000000
vn 1.000000 0.000000 0.000000
vn 1.000000 0.000000 0.000000
vn 1.000000 0.000000 0.000000
vn 1.000000 0.000000 0.000000
vn -1.000000 0.000000 0.000000
vn -1.000000 0.000000 0.000000
vn -1.000000 0.000000 0.000000
vn -1.000000 0.000000 0.000000
vn -0.026395 0.000000 0.999652
vn -0.026395 0.000000 0.999652
vn -0.026395 0.000000 0.999652
vn -0.026395 0.000000 0.999652
vn 0.000000 -1.000000 0.000000
vn 0.000000 -1.000000 0.000000
vn 0.000000 -1.000000 0.000000
vn 0.000000 -1.000000 0.000000
vn 0.026395 0.000000 -0.999652
vn 0.026395 0.000000 -0.999652
vn 0.026395 0.000000 -0.999652
vn 0.026395 0.000000 -0.999652
vn 0.000000 1.000000 0.000000
vn 0.000000 1.000000 0.000000
vn 0.000000 1.000000 0.000000
vn 0.000000 1.000000 0.000000
vn 0.999652 0.000000 0.026395
vn 0.999652 0.000000 0.026395
vn 0.999652 0.000000 0.026395
vn 0.999652 0.000000 0.026395
vn -0.999652 0.000000 -0.026395
vn -0.999652 0.000000 -0.026395
vn -0.999652 0.000000 -0.026395
vn -0.999652 0.000000 -0.026395
vn -0.122341 0.000000 0.992488
vn -0.122341 0.000000 0.992488
vn -0.122341 0.000000 0.992488
vn -0.122341 0.000000 0.992488
vn 0.000000 -1.000000 0.000000
vn 0.000000 -1.000000 0.000000
vn 0.000000 -1.000000 0.000000
vn 0.000000 -1.000000 0.000000
vn 0.122341 0.000000 -0.992488
vn 0.122341 0.000000 -0.992488
vn 0.122341 0.000000 -0.992488
vn 0.122341 0.000000 -0.992488
vn 0.000000 1.000000 0.000000
vn 0.000000 1.000000 0.000000
vn 0.000000 1.000000 0.000000
vn 0.000000 1.000000 0.000000
vn 0.992488 0.000000 0.122341
vn 0.992488 0.000000 0.122341
vn 0.992488 0.000000 0.122341
vn 0.992488 0.000000 0.122341
vn -0.992488 0.000000 -0.122341
vn -0.992488 0.000000 -0.122341
vn -0.992488 0.000000 -0.122341
vn -0.992488 0.000000 -0.122341
vn 0.230009 0.000000 0.973189
vn 0.230009 0.000000 0.973189
vn 0.230009 0.000000 0.973189
vn 0.230009 0.000000 0.973189
vn 0.000000 -1.000000 0.000000
vn 0.000000 -1.000000 0.000000
vn 0.000000 -1.000000 0.000000
vn 0.000000 -1.000000 0.000000
vn -0.230010 0.000000 -0.973188
vn -0.230010 0.000000 -0.973188
vn -0.230010 0.000000 -0.973188
vn -0.230010 0.000000 -0.973188
vn 0.000000 1.000000 -0.000000
vn 0.000000 1.000000 -0.000000
vn 0.000000 1.000000 -0.000000
vn 0.000000 1.000000 -0.000000
vn 0.973189 0.000000 -0.230009
vn 0.973189 0.000000 -0.230009
vn 0.973189 0.000000 -0.230009
vn 0.973189 0.000000 -0.230009
vn -0.973188 0.000000 0.230009
vn -0.973188 0.000000 0.230009
vn -0.973188 0.000000 0.230009
vn -0.973188 0.000000 0.230009
vn -0.026395 0.000000 0.999652
vn -0.026395 0.000000 0.999652
vn -0.026395 0.000000 0.999652
vn -0.026395 0.000000 0.999652
vn 0.000000 -1.000000 0.000000
vn 0.000000 -1.000000 0.000000
vn 0.000000 -1.000000 0.000000
vn 0.000000 -1.000000 0.000000
vn 0.026395 0.000000 -0.999652
vn 0.026395 0.000000 -0.999652
vn 0.026395 0.000000 -0.999652
vn 0.026395 0.000000 -0.999652
vn 0.000000 1.000000 0.000000
vn 0.000000 1.000000 0.000000
vn 0.000000 1.000000 0.000000
vn 0.000000 1.000000 0.000000
vn 0.999652 0.000000 0.026395
vn 0.999652 0.000000 0.026395
vn 0.999652 0.000000 0.026395
vn 0.999652 0.000000 0.026395
vn -0.999652 0.000000 -0.026395
vn -0.999652 0.000000 -0.026395
vn -0.999652 0.000000 -0.026395
vn -0.999652 0.000000 -0.026395
s off
g pCube3
usemtl initialShadingGroup
f 1/113/1 3/114/2 4/115/3 2/116/4
f 3/57/5 5/58/6 6/59/7 4/60/8
f 5/117/9 7/118/10 8/119/11 6/120/12
f 7/61/13 1/62/14 2/63/15 8/64/16
f 2/1/17 4/2/18 6/3/19 8/4/20
f 7/5/21 5/6/22 3/7/23 1/8/24
f 9/121/25 10/122/26 11/123/27 12/124/28
f 13/125/29 14/126/30 15/127/31 16/128/32
f 10/9/33 17/10/34 18/11/35 11/12/36
f 14/13/37 19/14/38 20/15/39 15/16/40
s 1
f 15/65/41 20/66/42 21/67/43 22/68/44 17/69/45 10/70/46
s off
f 23/73/47 12/74/48 11/75/49 18/76/50
f 24/77/51 19/78/52 14/79/53 13/80/54
s 1
f 16/71/55 15/65/41 10/70/46 9/72/56 22/68/44 21/67/43
s off
f 17/129/57 22/130/58 23/131/59 18/132/60
f 21/133/61 20/134/62 19/135/63 24/136/64
f 22/17/65 9/18/66 12/19/67 23/20/68
f 24/21/69 13/22/70 16/23/71 21/24/72
f 25/137/73 27/138/74 28/139/75 26/140/76
f 27/81/77 29/82/78 30/83/79 28/84/80
f 29/141/81 31/142/82 32/143/83 30/144/84
f 31/85/85 25/86/86 26/87/87 32/88/88
f 26/25/89 28/26/90 30/27/91 32/28/92
f 31/29/93 29/30/94 27/31/95 25/32/96
f 33/145/97 35/146/98 36/147/99 34/148/100
f 35/89/101 37/90/102 38/91/103 36/92/104
f 37/149/105 39/150/106 40/151/107 38/152/108
f 39/93/109 33/94/110 34/95/111 40/96/112
f 34/33/113 36/34/114 38/35/115 40/36/116
f 39/37/117 37/38/118 35/39/119 33/40/120
f 41/153/121 43/154/122 44/155/123 42/156/124
f 43/97/125 45/98/126 46/99/127 44/100/128
f 45/157/129 47/158/130 48/159/131 46/160/132
f 47/101/133 41/102/134 42/103/135 48/104/136
f 42/41/137 44/42/138 46/43/139 48/44/140
f 47/45/141 45/46/142 43/47/143 41/48/144
f 49/161/145 51/162/146 52/163/147 50/164/148
f 51/105/149 53/106/150 54/107/151 52/108/152
f 53/165/153 55/166/154 56/167/155 54/168/156
f 55/109/157 49/110/158 50/111/159 56/112/160
f 50/49/161 52/50/162 54/51/163 56/52/164
f 55/53/165 53/54/166 51/55/167 49/56/168
