# This file uses centimeters as units for non-parametric coordinates.

mtllib billy lever 1.mtl
g default
v -2.681105 0.000000 -9.932769
v -2.681105 0.402743 -10.335510
v 6.011952 0.402743 -10.335510
v 6.011952 0.000000 -9.932769
v -2.681105 0.604215 -10.335510
v 6.011952 0.604215 -10.335510
v -2.681105 0.000000 -4.374797
v -2.681105 0.402743 -3.972053
v -3.083847 0.402743 -4.374797
v -2.681105 1.006957 -9.932769
v 6.011952 1.006957 -9.932769
v -3.083847 0.604215 -4.374797
v -2.681105 0.604215 -3.972053
v -2.681105 1.006957 -4.374797
v -0.844323 1.006957 -8.073611
v -0.844323 1.006957 -6.344752
v -0.844323 0.214917 -6.344752
v -0.844323 0.214917 -8.073611
v 6.414695 0.402743 -9.932769
v 4.004171 1.006957 -8.073611
v 4.004171 0.214917 -8.073611
v 6.414695 0.604215 -9.932769
v 6.011952 0.000000 -4.374797
v 4.004171 0.214917 -6.344752
v 4.004171 1.006957 -6.344752
v 6.414695 0.402743 -4.374797
v 6.011952 0.402743 -3.972053
v 6.011952 1.006957 -4.374797
v 6.011952 0.604215 -3.972053
v 6.414695 0.604215 -4.374797
v -3.083847 0.604215 -9.932769
v -3.083847 0.402743 -9.932769
vt 0.685301 0.585691
vt 0.685301 0.701018
vt 0.632466 0.701018
vt 0.632466 0.585691
vt 0.626331 0.585691
vt 0.626331 0.701018
vt 0.573496 0.701018
vt 0.573496 0.585691
vt 0.957703 0.827911
vt 0.957703 0.457157
vt 0.971142 0.457157
vt 0.971142 0.827911
vt 0.930837 0.827911
vt 0.930837 0.457157
vt 0.971142 0.430291
vt 0.957703 0.430291
vt 0.998008 0.827911
vt 0.998008 0.457157
vt 0.957703 0.854777
vt 0.971142 0.854777
vt 0.933367 0.399434
vt 0.933367 0.028680
vt 0.946806 0.028680
vt 0.946806 0.399434
vt 0.906501 0.028680
vt 0.906501 0.399434
vt 0.933367 0.001815
vt 0.946806 0.001815
vt 0.973672 0.028680
vt 0.973672 0.399434
vt 0.946806 0.426300
vt 0.933367 0.426300
vt 0.028858 0.581700
vt 0.028858 0.001815
vt 0.399612 0.001815
vt 0.399612 0.581700
vt 0.001992 0.581700
vt 0.001992 0.001815
vt 0.426477 0.581700
vt 0.426477 0.001815
vt 0.865732 0.909119
vt 0.750406 0.909119
vt 0.750406 0.585691
vt 0.865732 0.585691
vt 0.481210 0.581700
vt 0.481210 0.001815
vt 0.612619 0.135747
vt 0.612619 0.459174
vt 0.727946 0.459174
vt 0.851964 0.581700
vt 0.454344 0.581700
vt 0.454344 0.001815
vt 0.851964 0.001815
vt 0.727946 0.135747
vt 0.878829 0.581700
vt 0.878829 0.001815
vt 0.432905 0.581700
vt 0.432905 0.001815
vt 0.446345 0.001815
vt 0.446345 0.581700
vt 0.924702 0.585691
vt 0.924702 0.909119
vt 0.871868 0.909119
vt 0.871868 0.585691
vt 0.691436 0.909119
vt 0.691436 0.585691
vt 0.744270 0.585691
vt 0.744270 0.909119
vt 0.885062 0.581700
vt 0.885062 0.001815
vt 0.898502 0.001815
vt 0.898502 0.581700
vn 0.000000 -0.707107 -0.707107
vn 0.000000 -0.707107 -0.707107
vn 0.000000 -0.707107 -0.707107
vn 0.000000 -0.707107 -0.707107
vn 0.000000 0.000000 -1.000000
vn 0.000000 0.000000 -1.000000
vn 0.000000 0.000000 -1.000000
vn 0.000000 0.000000 -1.000000
vn -0.577352 -0.577350 0.577349
vn -0.577352 -0.577350 0.577349
vn -0.577352 -0.577350 0.577349
vn 0.000000 0.707107 -0.707107
vn 0.000000 0.707107 -0.707107
vn 0.000000 0.707107 -0.707107
vn 0.000000 0.707107 -0.707107
vn -0.577352 0.577350 0.577349
vn -0.577352 0.577350 0.577349
vn -0.577352 0.577350 0.577349
vn 1.000000 0.000000 0.000000
vn 1.000000 0.000000 0.000000
vn 1.000000 0.000000 0.000000
vn 1.000000 0.000000 0.000000
vn -0.707107 0.000000 0.707106
vn -0.707107 0.000000 0.707106
vn -0.707107 0.000000 0.707106
vn -0.707107 0.000000 0.707106
vn 0.577349 -0.577352 -0.577350
vn 0.577349 -0.577352 -0.577350
vn 0.577349 -0.577352 -0.577350
vn 0.000000 0.000000 1.000000
vn 0.000000 0.000000 1.000000
vn 0.000000 0.000000 1.000000
vn 0.000000 0.000000 1.000000
vn 0.577349 0.577352 -0.577350
vn 0.577349 0.577352 -0.577350
vn 0.577349 0.577352 -0.577350
vn 0.000000 -1.000000 0.000000
vn 0.000000 -1.000000 0.000000
vn 0.000000 -1.000000 0.000000
vn 0.000000 -1.000000 0.000000
vn 0.000000 1.000000 0.000000
vn 0.000000 1.000000 0.000000
vn 0.000000 1.000000 0.000000
vn 0.000000 1.000000 0.000000
vn 0.000000 0.000000 -1.000000
vn 0.000000 0.000000 -1.000000
vn 0.000000 0.000000 -1.000000
vn 0.000000 0.000000 -1.000000
vn 0.707107 0.000000 -0.707107
vn 0.707107 0.000000 -0.707107
vn 0.707107 0.000000 -0.707107
vn 0.707107 0.000000 -0.707107
vn 0.577350 -0.577351 0.577349
vn 0.577350 -0.577351 0.577349
vn 0.577350 -0.577351 0.577349
vn -1.000000 0.000000 0.000000
vn -1.000000 0.000000 0.000000
vn -1.000000 0.000000 0.000000
vn -1.000000 0.000000 0.000000
vn 0.577350 0.577351 0.577349
vn 0.577350 0.577351 0.577349
vn 0.577350 0.577351 0.577349
vn 0.000000 -0.707107 0.707107
vn 0.000000 -0.707107 0.707107
vn 0.000000 -0.707107 0.707107
vn 0.000000 -0.707107 0.707107
vn 0.000000 0.000000 1.000000
vn 0.000000 0.000000 1.000000
vn 0.000000 0.000000 1.000000
vn 0.000000 0.000000 1.000000
vn 0.000000 0.707107 0.707107
vn 0.000000 0.707107 0.707107
vn 0.000000 0.707107 0.707107
vn 0.000000 0.707107 0.707107
vn 0.707107 -0.707107 0.000000
vn 0.707107 -0.707107 0.000000
vn 0.707107 -0.707107 0.000000
vn 0.707107 -0.707107 0.000000
vn 1.000000 0.000000 0.000000
vn 1.000000 0.000000 0.000000
vn 1.000000 0.000000 0.000000
vn 1.000000 0.000000 0.000000
vn 0.707107 0.707107 0.000000
vn 0.707107 0.707107 0.000000
vn 0.707107 0.707107 0.000000
vn 0.707107 0.707107 0.000000
vn 0.000000 1.000000 0.000000
vn 0.000000 1.000000 0.000000
vn 0.000000 1.000000 0.000000
vn 0.000000 1.000000 0.000000
vn 0.000000 1.000000 0.000000
vn 0.000000 1.000000 0.000000
vn 0.000000 1.000000 0.000000
vn 0.000000 1.000000 0.000000
vn 0.000000 1.000000 0.000000
vn 0.000000 1.000000 0.000000
vn 0.000000 1.000000 0.000000
vn 0.000000 1.000000 0.000000
vn 0.707107 0.000000 0.707107
vn 0.707107 0.000000 0.707107
vn 0.707107 0.000000 0.707107
vn 0.707107 0.000000 0.707107
vn -0.707107 0.707106 0.000000
vn -0.707107 0.707106 0.000000
vn -0.707107 0.707106 0.000000
vn -0.707107 0.707106 0.000000
vn -1.000000 0.000000 0.000000
vn -1.000000 0.000000 0.000000
vn -1.000000 0.000000 0.000000
vn -1.000000 0.000000 0.000000
vn -0.707107 -0.707106 0.000000
vn -0.707107 -0.707106 0.000000
vn -0.707107 -0.707106 0.000000
vn -0.707107 -0.707106 0.000000
vn -0.577350 0.577350 -0.577350
vn -0.577350 0.577350 -0.577350
vn -0.577350 0.577350 -0.577350
vn -0.577350 -0.577350 -0.577350
vn -0.577350 -0.577350 -0.577350
vn -0.577350 -0.577350 -0.577350
vn -0.707107 0.000000 -0.707107
vn -0.707107 0.000000 -0.707107
vn -0.707107 0.000000 -0.707107
vn -0.707107 0.000000 -0.707107
s off
g billy_lever_1:polySurface1
usemtl initialShadingGroup
f 1/33/1 2/37/2 3/38/3 4/34/4
f 5/57/5 6/58/6 3/59/7 2/60/8
f 7/25/9 8/27/10 9/22/11
f 5/55/12 10/50/13 11/53/14 6/56/15
f 12/23/16 13/28/17 14/29/18
f 15/1/19 16/2/20 17/3/21 18/4/22
f 9/22/23 8/27/24 13/28/25 12/23/26
f 4/14/27 3/16/28 19/10/29
f 20/61/30 15/62/31 18/63/32 21/64/33
f 6/15/34 11/18/35 22/11/36
f 1/33/37 4/34/38 23/35/39 7/36/40
f 18/41/41 17/42/42 24/43/43 21/44/44
f 16/65/45 25/66/46 24/67/47 17/68/48
f 6/15/49 22/11/50 19/10/51 3/16/52
f 26/9/53 27/19/54 23/13/55
f 25/5/56 20/6/57 21/7/58 24/8/59
f 28/17/60 29/20/61 30/12/62
f 8/39/63 7/36/64 23/35/65 27/40/66
f 8/69/67 27/70/68 29/71/69 13/72/70
f 14/45/71 13/51/72 29/52/73 28/46/74
f 26/9/75 23/13/76 4/14/77 19/10/78
f 26/9/79 19/10/80 22/11/81 30/12/82
f 28/17/83 30/12/84 22/11/85 11/18/86
f 14/45/87 28/46/88 25/47/89 16/48/90 15/49/91 10/50/92
f 28/46/93 11/53/94 10/50/95 15/49/96 20/54/97 25/47/98
f 27/19/99 26/9/100 30/12/101 29/20/102
f 12/23/103 14/29/104 10/30/105 31/24/106
f 32/21/107 9/22/108 12/23/109 31/24/110
f 7/25/111 9/22/112 32/21/113 1/26/114
f 31/24/115 10/30/116 5/31/117
f 32/21/118 2/32/119 1/26/120
f 31/24/121 5/31/122 2/32/123 32/21/124
